<?xml version="1.0" encoding="UTF-8" standalone="no"?>
<!DOCTYPE svg PUBLIC "-//W3C//DTD SVG 1.1//EN"
 "http://www.w3.org/Graphics/SVG/1.1/DTD/svg11.dtd">
<!-- Generated by graphviz version 7.1.0 (0)
 -->
<!-- Pages: 1 -->
<svg width="259pt" height="349pt"
 viewBox="0.00 0.00 259.00 348.91" xmlns="http://www.w3.org/2000/svg" xmlns:xlink="http://www.w3.org/1999/xlink">
<g id="graph0" class="graph" transform="scale(1 1) rotate(0) translate(4 344.91)">
<polygon fill="white" stroke="none" points="-4,4 -4,-344.91 255,-344.91 255,4 -4,4"/>
<g id="clust1" class="cluster">
<title>cluster3</title>
<path fill="none" stroke="black" d="M20,-218.95C20,-218.95 231,-218.95 231,-218.95 237,-218.95 243,-224.95 243,-230.95 243,-230.95 243,-320.91 243,-320.91 243,-326.91 237,-332.91 231,-332.91 231,-332.91 20,-332.91 20,-332.91 14,-332.91 8,-326.91 8,-320.91 8,-320.91 8,-230.95 8,-230.95 8,-224.95 14,-218.95 20,-218.95"/>
<text text-anchor="middle" x="231.5" y="-226.75" font-family="Times,serif" font-size="14.00">3</text>
</g>
<g id="clust2" class="cluster">
<title>cluster470</title>
<path fill="none" stroke="black" d="M137,-8C137,-8 221,-8 221,-8 227,-8 233,-14 233,-20 233,-20 233,-198.95 233,-198.95 233,-204.95 227,-210.95 221,-210.95 221,-210.95 137,-210.95 137,-210.95 131,-210.95 125,-204.95 125,-198.95 125,-198.95 125,-20 125,-20 125,-14 131,-8 137,-8"/>
<text text-anchor="middle" x="214.5" y="-15.8" font-family="Times,serif" font-size="14.00">470</text>
</g>
<!-- σ -->
<g id="node1" class="node">
<title>σ</title>
<ellipse fill="none" stroke="black" cx="75" cy="-287.43" rx="58.88" ry="37.45"/>
<text text-anchor="middle" x="75" y="-298.73" font-family="Times,serif" font-size="14.00">σ</text>
<text text-anchor="middle" x="75" y="-283.73" font-family="Times,serif" font-size="14.00">~</text>
<text text-anchor="middle" x="75" y="-268.73" font-family="Times,serif" font-size="14.00">HalfNormal</text>
</g>
<!-- sales -->
<g id="node3" class="node">
<title>sales</title>
<ellipse fill="lightgrey" stroke="black" cx="177" cy="-76.48" rx="41.94" ry="37.45"/>
<text text-anchor="middle" x="177" y="-87.78" font-family="Times,serif" font-size="14.00">sales</text>
<text text-anchor="middle" x="177" y="-72.78" font-family="Times,serif" font-size="14.00">~</text>
<text text-anchor="middle" x="177" y="-57.78" font-family="Times,serif" font-size="14.00">Normal</text>
</g>
<!-- σ&#45;&gt;sales -->
<g id="edge2" class="edge">
<title>σ&#45;&gt;sales</title>
<path fill="none" stroke="black" d="M85.31,-250.24C94.02,-222.05 107.83,-182.4 125,-149.95 130.99,-138.64 138.54,-127.07 146.01,-116.59"/>
<polygon fill="black" stroke="black" points="148.82,-118.67 151.91,-108.54 143.17,-114.54 148.82,-118.67"/>
</g>
<!-- β -->
<g id="node2" class="node">
<title>β</title>
<ellipse fill="none" stroke="black" cx="193" cy="-287.43" rx="41.94" ry="37.45"/>
<text text-anchor="middle" x="193" y="-298.73" font-family="Times,serif" font-size="14.00">β</text>
<text text-anchor="middle" x="193" y="-283.73" font-family="Times,serif" font-size="14.00">~</text>
<text text-anchor="middle" x="193" y="-268.73" font-family="Times,serif" font-size="14.00">Normal</text>
</g>
<!-- μ -->
<g id="node4" class="node">
<title>μ</title>
<polygon fill="none" stroke="black" points="224.5,-202.95 133.5,-202.95 133.5,-149.95 224.5,-149.95 224.5,-202.95"/>
<text text-anchor="middle" x="179" y="-187.75" font-family="Times,serif" font-size="14.00">μ</text>
<text text-anchor="middle" x="179" y="-172.75" font-family="Times,serif" font-size="14.00">~</text>
<text text-anchor="middle" x="179" y="-157.75" font-family="Times,serif" font-size="14.00">Deterministic</text>
</g>
<!-- β&#45;&gt;μ -->
<g id="edge1" class="edge">
<title>β&#45;&gt;μ</title>
<path fill="none" stroke="black" d="M188.3,-249.84C186.85,-238.55 185.25,-226.11 183.79,-214.77"/>
<polygon fill="black" stroke="black" points="187.28,-214.42 182.53,-204.95 180.34,-215.31 187.28,-214.42"/>
</g>
<!-- μ&#45;&gt;sales -->
<g id="edge3" class="edge">
<title>μ&#45;&gt;sales</title>
<path fill="none" stroke="black" d="M178.47,-149.45C178.32,-142.13 178.15,-133.93 177.99,-125.75"/>
<polygon fill="black" stroke="black" points="181.49,-125.73 177.78,-115.81 174.49,-125.88 181.49,-125.73"/>
</g>
</g>
</svg>
