<?xml version="1.0" encoding="UTF-8" standalone="no"?>
<!DOCTYPE svg PUBLIC "-//W3C//DTD SVG 1.1//EN"
 "http://www.w3.org/Graphics/SVG/1.1/DTD/svg11.dtd">
<!-- Generated by graphviz version 7.1.0 (0)
 -->
<!-- Pages: 1 -->
<svg width="746pt" height="333pt"
 viewBox="0.00 0.00 746.00 332.74" xmlns="http://www.w3.org/2000/svg" xmlns:xlink="http://www.w3.org/1999/xlink">
<g id="graph0" class="graph" transform="scale(1 1) rotate(0) translate(4 328.74)">
<polygon fill="white" stroke="none" points="-4,4 -4,-328.74 742,-328.74 742,4 -4,4"/>
<g id="clust1" class="cluster">
<title>cluster_ds</title>
<polygon fill="none" stroke="black" points="8,-8 8,-316.74 459,-316.74 459,-8 8,-8"/>
<text text-anchor="middle" x="233.5" y="-301.54" font-family="Times,serif" font-size="14.00">DSc packages</text>
</g>
<g id="clust2" class="cluster">
<title>cluster_fullstack</title>
<polygon fill="none" stroke="black" points="467,-8 467,-307.87 730,-307.87 730,-8 467,-8"/>
<text text-anchor="middle" x="598.5" y="-292.67" font-family="Times,serif" font-size="14.00">Frameworks for apps/pipes</text>
</g>
<!-- arrow -->
<g id="node1" class="node">
<title>arrow</title>
<ellipse fill="none" stroke="black" cx="332" cy="-258.87" rx="31.4" ry="18"/>
<text text-anchor="middle" x="332" y="-255.17" font-family="Times,serif" font-size="14.00">arrow</text>
</g>
<!-- pandas -->
<g id="node2" class="node">
<title>pandas</title>
<ellipse fill="none" stroke="black" cx="243" cy="-178" rx="35.19" ry="18"/>
<text text-anchor="middle" x="243" y="-174.3" font-family="Times,serif" font-size="14.00">pandas</text>
</g>
<!-- arrow&#45;&gt;pandas -->
<g id="edge1" class="edge">
<title>arrow&#45;&gt;pandas</title>
<path fill="none" stroke="black" d="M315.68,-243.4C302.5,-231.73 283.74,-215.1 268.57,-201.66"/>
<polygon fill="black" stroke="black" points="271.07,-199.2 261.26,-195.18 266.43,-204.44 271.07,-199.2"/>
</g>
<!-- duckdb -->
<g id="node9" class="node">
<title>duckdb</title>
<ellipse fill="none" stroke="black" cx="332" cy="-178" rx="36.29" ry="18"/>
<text text-anchor="middle" x="332" y="-174.3" font-family="Times,serif" font-size="14.00">duckdb</text>
</g>
<!-- arrow&#45;&gt;duckdb -->
<g id="edge8" class="edge">
<title>arrow&#45;&gt;duckdb</title>
<path fill="none" stroke="black" d="M332,-240.76C332,-231.11 332,-218.8 332,-207.72"/>
<polygon fill="black" stroke="black" points="335.5,-207.87 332,-197.87 328.5,-207.87 335.5,-207.87"/>
</g>
<!-- polars -->
<g id="node10" class="node">
<title>polars</title>
<ellipse fill="none" stroke="black" cx="419" cy="-178" rx="32.49" ry="18"/>
<text text-anchor="middle" x="419" y="-174.3" font-family="Times,serif" font-size="14.00">polars</text>
</g>
<!-- arrow&#45;&gt;polars -->
<g id="edge9" class="edge">
<title>arrow&#45;&gt;polars</title>
<path fill="none" stroke="black" d="M348.36,-243.04C361.37,-231.25 379.75,-214.58 394.51,-201.2"/>
<polygon fill="black" stroke="black" points="396.53,-204.09 401.59,-194.78 391.83,-198.91 396.53,-204.09"/>
</g>
<!-- xarray -->
<g id="node5" class="node">
<title>xarray</title>
<ellipse fill="none" stroke="black" cx="242" cy="-106" rx="33.29" ry="18"/>
<text text-anchor="middle" x="242" y="-102.3" font-family="Times,serif" font-size="14.00">xarray</text>
</g>
<!-- pandas&#45;&gt;xarray -->
<g id="edge4" class="edge">
<title>pandas&#45;&gt;xarray</title>
<path fill="none" stroke="black" d="M242.75,-159.7C242.65,-152.41 242.52,-143.73 242.41,-135.54"/>
<polygon fill="black" stroke="black" points="245.91,-135.57 242.27,-125.62 238.91,-135.67 245.91,-135.57"/>
</g>
<!-- numpy &amp;
tensors -->
<g id="node3" class="node">
<title>numpy &amp;
tensors</title>
<ellipse fill="none" stroke="black" cx="133" cy="-258.87" rx="49.49" ry="26.74"/>
<text text-anchor="middle" x="133" y="-262.67" font-family="Times,serif" font-size="14.00">numpy &amp;</text>
<text text-anchor="middle" x="133" y="-247.67" font-family="Times,serif" font-size="14.00">tensors</text>
</g>
<!-- numpy &amp;
tensors&#45;&gt;pandas -->
<g id="edge2" class="edge">
<title>numpy &amp;
tensors&#45;&gt;pandas</title>
<path fill="none" stroke="black" d="M162.19,-236.94C178.26,-225.42 198.13,-211.17 214.14,-199.69"/>
<polygon fill="black" stroke="black" points="215.75,-202.84 221.84,-194.17 211.67,-197.16 215.75,-202.84"/>
</g>
<!-- pymc -->
<g id="node6" class="node">
<title>pymc</title>
<ellipse fill="none" stroke="black" cx="216" cy="-34" rx="30.59" ry="18"/>
<text text-anchor="middle" x="216" y="-30.3" font-family="Times,serif" font-size="14.00">pymc</text>
</g>
<!-- numpy &amp;
tensors&#45;&gt;pymc -->
<g id="edge10" class="edge">
<title>numpy &amp;
tensors&#45;&gt;pymc</title>
<path fill="none" stroke="black" d="M154.31,-234.47C163.21,-223.51 172.89,-209.84 179,-196 198.75,-151.27 188.25,-135.47 200,-88 202.04,-79.76 204.58,-70.89 207.03,-62.81"/>
<polygon fill="black" stroke="black" points="210.29,-64.1 209.92,-53.51 203.61,-62.02 210.29,-64.1"/>
</g>
<!-- scikit -->
<g id="node7" class="node">
<title>scikit</title>
<ellipse fill="none" stroke="black" cx="46" cy="-178" rx="29.8" ry="18"/>
<text text-anchor="middle" x="46" y="-174.3" font-family="Times,serif" font-size="14.00">scikit</text>
</g>
<!-- numpy &amp;
tensors&#45;&gt;scikit -->
<g id="edge6" class="edge">
<title>numpy &amp;
tensors&#45;&gt;scikit</title>
<path fill="none" stroke="black" d="M108.3,-235.48C96.45,-224.74 82.3,-211.91 70.48,-201.19"/>
<polygon fill="black" stroke="black" points="72.85,-198.62 63.09,-194.49 68.15,-203.8 72.85,-198.62"/>
</g>
<!-- pytorch -->
<g id="node8" class="node">
<title>pytorch</title>
<ellipse fill="none" stroke="black" cx="132" cy="-178" rx="37.89" ry="18"/>
<text text-anchor="middle" x="132" y="-174.3" font-family="Times,serif" font-size="14.00">pytorch</text>
</g>
<!-- numpy &amp;
tensors&#45;&gt;pytorch -->
<g id="edge7" class="edge">
<title>numpy &amp;
tensors&#45;&gt;pytorch</title>
<path fill="none" stroke="black" d="M132.67,-232.05C132.57,-224.29 132.47,-215.73 132.37,-207.79"/>
<polygon fill="black" stroke="black" points="135.87,-207.88 132.24,-197.93 128.87,-207.97 135.87,-207.88"/>
</g>
<!-- matplot. -->
<g id="node4" class="node">
<title>matplot.</title>
<ellipse fill="none" stroke="black" cx="243" cy="-258.87" rx="40.09" ry="18"/>
<text text-anchor="middle" x="243" y="-255.17" font-family="Times,serif" font-size="14.00">matplot.</text>
</g>
<!-- matplot.&#45;&gt;pandas -->
<g id="edge3" class="edge">
<title>matplot.&#45;&gt;pandas</title>
<path fill="none" stroke="black" d="M243,-240.76C243,-231.11 243,-218.8 243,-207.72"/>
<polygon fill="black" stroke="black" points="246.5,-207.87 243,-197.87 239.5,-207.87 246.5,-207.87"/>
</g>
<!-- xarray&#45;&gt;pymc -->
<g id="edge5" class="edge">
<title>xarray&#45;&gt;pymc</title>
<path fill="none" stroke="black" d="M235.71,-88.05C232.86,-80.4 229.43,-71.16 226.24,-62.56"/>
<polygon fill="black" stroke="black" points="229.53,-61.36 222.76,-53.21 222.96,-63.8 229.53,-61.36"/>
</g>
<!-- ray -->
<g id="node11" class="node">
<title>ray</title>
<ellipse fill="none" stroke="black" cx="419" cy="-106" rx="27" ry="18"/>
<text text-anchor="middle" x="419" y="-102.3" font-family="Times,serif" font-size="14.00">ray</text>
</g>
<!-- polars&#45;&gt;ray -->
<g id="edge11" class="edge">
<title>polars&#45;&gt;ray</title>
<path fill="none" stroke="black" d="M419,-159.7C419,-152.41 419,-143.73 419,-135.54"/>
<polygon fill="black" stroke="black" points="422.5,-135.62 419,-125.62 415.5,-135.62 422.5,-135.62"/>
</g>
<!-- pydantic -->
<g id="node12" class="node">
<title>pydantic</title>
<ellipse fill="none" stroke="black" cx="585" cy="-258.87" rx="40.89" ry="18"/>
<text text-anchor="middle" x="585" y="-255.17" font-family="Times,serif" font-size="14.00">pydantic</text>
</g>
<!-- typer -->
<g id="node13" class="node">
<title>typer</title>
<ellipse fill="none" stroke="black" cx="504" cy="-178" rx="28.7" ry="18"/>
<text text-anchor="middle" x="504" y="-174.3" font-family="Times,serif" font-size="14.00">typer</text>
</g>
<!-- pydantic&#45;&gt;typer -->
<g id="edge12" class="edge">
<title>pydantic&#45;&gt;typer</title>
<path fill="none" stroke="black" d="M568.61,-241.91C556.7,-230.32 540.42,-214.47 527.18,-201.58"/>
<polygon fill="black" stroke="black" points="529.69,-199.13 520.09,-194.66 524.81,-204.15 529.69,-199.13"/>
</g>
<!-- fastapi -->
<g id="node14" class="node">
<title>fastapi</title>
<ellipse fill="none" stroke="black" cx="585" cy="-178" rx="34.39" ry="18"/>
<text text-anchor="middle" x="585" y="-174.3" font-family="Times,serif" font-size="14.00">fastapi</text>
</g>
<!-- pydantic&#45;&gt;fastapi -->
<g id="edge13" class="edge">
<title>pydantic&#45;&gt;fastapi</title>
<path fill="none" stroke="black" d="M585,-240.76C585,-231.11 585,-218.8 585,-207.72"/>
<polygon fill="black" stroke="black" points="588.5,-207.87 585,-197.87 581.5,-207.87 588.5,-207.87"/>
</g>
<!-- streamlit -->
<g id="node15" class="node">
<title>streamlit</title>
<ellipse fill="none" stroke="black" cx="680" cy="-178" rx="42.49" ry="18"/>
<text text-anchor="middle" x="680" y="-174.3" font-family="Times,serif" font-size="14.00">streamlit</text>
</g>
<!-- pydantic&#45;&gt;streamlit -->
<g id="edge14" class="edge">
<title>pydantic&#45;&gt;streamlit</title>
<path fill="none" stroke="black" d="M603.32,-242.66C617.29,-231.06 636.76,-214.9 652.59,-201.76"/>
<polygon fill="black" stroke="black" points="654.79,-204.48 660.25,-195.4 650.32,-199.09 654.79,-204.48"/>
</g>
<!-- prefect -->
<g id="node16" class="node">
<title>prefect</title>
<ellipse fill="none" stroke="black" cx="510" cy="-106" rx="35.19" ry="18"/>
<text text-anchor="middle" x="510" y="-102.3" font-family="Times,serif" font-size="14.00">prefect</text>
</g>
<!-- typer&#45;&gt;prefect -->
<g id="edge17" class="edge">
<title>typer&#45;&gt;prefect</title>
<path fill="none" stroke="black" d="M505.48,-159.7C506.11,-152.41 506.85,-143.73 507.55,-135.54"/>
<polygon fill="black" stroke="black" points="511.04,-135.87 508.4,-125.61 504.06,-135.28 511.04,-135.87"/>
</g>
<!-- DBT -->
<g id="node17" class="node">
<title>DBT</title>
<ellipse fill="none" stroke="black" cx="507" cy="-34" rx="28.7" ry="18"/>
<text text-anchor="middle" x="507" y="-30.3" font-family="Times,serif" font-size="14.00">DBT</text>
</g>
<!-- prefect&#45;&gt;DBT -->
<g id="edge15" class="edge">
<title>prefect&#45;&gt;DBT</title>
<path fill="none" stroke="black" d="M509.26,-87.7C508.95,-80.41 508.57,-71.73 508.22,-63.54"/>
<polygon fill="black" stroke="black" points="511.72,-63.46 507.8,-53.62 504.73,-63.76 511.72,-63.46"/>
</g>
<!-- MLFlow -->
<g id="node18" class="node">
<title>MLFlow</title>
<ellipse fill="none" stroke="black" cx="596" cy="-34" rx="42.49" ry="18"/>
<text text-anchor="middle" x="596" y="-30.3" font-family="Times,serif" font-size="14.00">MLFlow</text>
</g>
<!-- prefect&#45;&gt;MLFlow -->
<g id="edge16" class="edge">
<title>prefect&#45;&gt;MLFlow</title>
<path fill="none" stroke="black" d="M528.24,-90.15C539.86,-80.7 555.13,-68.26 568.24,-57.6"/>
<polygon fill="black" stroke="black" points="570.17,-60.53 575.72,-51.51 565.75,-55.11 570.17,-60.53"/>
</g>
</g>
</svg>
