<?xml version="1.0" encoding="UTF-8" standalone="no"?>
<!DOCTYPE svg PUBLIC "-//W3C//DTD SVG 1.1//EN"
 "http://www.w3.org/Graphics/SVG/1.1/DTD/svg11.dtd">
<!-- Generated by graphviz version 7.1.0 (0)
 -->
<!-- Pages: 1 -->
<svg width="288pt" height="369pt"
 viewBox="0.00 0.00 288.05 368.74" xmlns="http://www.w3.org/2000/svg" xmlns:xlink="http://www.w3.org/1999/xlink">
<g id="graph0" class="graph" transform="scale(1 1) rotate(0) translate(4 364.74)">
<polygon fill="white" stroke="none" points="-4,4 -4,-364.74 284.05,-364.74 284.05,4 -4,4"/>
<g id="clust1" class="cluster">
<title>cluster_1</title>
<polygon fill="none" stroke="black" points="110.05,-8 110.05,-299 272.05,-299 272.05,-8 110.05,-8"/>
<text text-anchor="middle" x="191.05" y="-283.8" font-family="Times,serif" font-size="14.00">1:nr_trips</text>
</g>
<!-- X2 -->
<g id="node1" class="node">
<title>X2</title>
<ellipse fill="none" stroke="black" cx="227.05" cy="-250" rx="27" ry="18"/>
<text text-anchor="middle" x="227.05" y="-246.3" font-family="Times,serif" font-size="14.00">X2</text>
</g>
<!-- X3 -->
<g id="node2" class="node">
<title>X3</title>
<ellipse fill="lightblue" stroke="lightblue" cx="217.05" cy="-178" rx="27" ry="18"/>
<text text-anchor="middle" x="217.05" y="-174.3" font-family="Times,serif" font-size="14.00">X3</text>
</g>
<!-- X2&#45;&gt;X3 -->
<g id="edge1" class="edge">
<title>X2&#45;&gt;X3</title>
<path fill="none" stroke="black" d="M224.57,-231.7C223.52,-224.32 222.26,-215.52 221.08,-207.25"/>
<polygon fill="black" stroke="black" points="224.58,-207.01 219.7,-197.6 217.65,-208 224.58,-207.01"/>
</g>
<!-- Y mix -->
<g id="node3" class="node">
<title>Y mix</title>
<ellipse fill="none" stroke="black" cx="231.05" cy="-106" rx="33.29" ry="18"/>
<text text-anchor="middle" x="231.05" y="-102.3" font-family="Times,serif" font-size="14.00">Y mix</text>
</g>
<!-- X2&#45;&gt;Y mix -->
<g id="edge3" class="edge">
<title>X2&#45;&gt;Y mix</title>
<path fill="none" stroke="black" d="M237.28,-233.02C243.17,-222.86 249.99,-209.18 253.05,-196 256.66,-180.41 256.17,-175.69 253.05,-160 251.31,-151.27 248.1,-142.17 244.66,-134.03"/>
<polygon fill="black" stroke="black" points="247.89,-132.69 240.57,-125.03 241.52,-135.58 247.89,-132.69"/>
</g>
<!-- X3&#45;&gt;Y mix -->
<g id="edge2" class="edge">
<title>X3&#45;&gt;Y mix</title>
<path fill="none" stroke="black" d="M220.51,-159.7C221.98,-152.32 223.74,-143.52 225.4,-135.25"/>
<polygon fill="black" stroke="black" points="228.8,-136.08 227.33,-125.59 221.93,-134.71 228.8,-136.08"/>
</g>
<!-- Y -->
<g id="node6" class="node">
<title>Y</title>
<ellipse fill="none" stroke="black" cx="190.05" cy="-34" rx="27" ry="18"/>
<text text-anchor="middle" x="190.05" y="-30.3" font-family="Times,serif" font-size="14.00">Y</text>
</g>
<!-- Y mix&#45;&gt;Y -->
<g id="edge6" class="edge">
<title>Y mix&#45;&gt;Y</title>
<path fill="none" stroke="black" d="M221.33,-88.41C216.51,-80.19 210.58,-70.06 205.19,-60.85"/>
<polygon fill="black" stroke="black" points="208.25,-59.15 200.17,-52.29 202.21,-62.69 208.25,-59.15"/>
</g>
<!-- X1 -->
<g id="node4" class="node">
<title>X1</title>
<ellipse fill="lightblue" stroke="lightblue" cx="145.05" cy="-178" rx="27" ry="18"/>
<text text-anchor="middle" x="145.05" y="-174.3" font-family="Times,serif" font-size="14.00">X1</text>
</g>
<!-- Y ind -->
<g id="node5" class="node">
<title>Y ind</title>
<ellipse fill="none" stroke="black" cx="149.05" cy="-106" rx="30.59" ry="18"/>
<text text-anchor="middle" x="149.05" y="-102.3" font-family="Times,serif" font-size="14.00">Y ind</text>
</g>
<!-- X1&#45;&gt;Y ind -->
<g id="edge4" class="edge">
<title>X1&#45;&gt;Y ind</title>
<path fill="none" stroke="black" d="M146.03,-159.7C146.45,-152.41 146.95,-143.73 147.41,-135.54"/>
<polygon fill="black" stroke="black" points="150.91,-135.8 147.98,-125.62 143.92,-135.4 150.91,-135.8"/>
</g>
<!-- Y ind&#45;&gt;Y -->
<g id="edge5" class="edge">
<title>Y ind&#45;&gt;Y</title>
<path fill="none" stroke="black" d="M158.55,-88.76C163.42,-80.46 169.46,-70.15 174.94,-60.79"/>
<polygon fill="black" stroke="black" points="177.79,-62.85 179.82,-52.45 171.75,-59.31 177.79,-62.85"/>
</g>
<!-- pr_showup -->
<g id="node7" class="node">
<title>pr_showup</title>
<ellipse fill="lightgrey" stroke="black" cx="50.05" cy="-178" rx="50.09" ry="18"/>
<text text-anchor="middle" x="50.05" y="-174.3" font-family="Times,serif" font-size="14.00">pr_showup</text>
</g>
<!-- pr_showup&#45;&gt;Y mix -->
<g id="edge8" class="edge">
<title>pr_showup&#45;&gt;Y mix</title>
<path fill="none" stroke="black" d="M83.82,-164.34C112.02,-153.72 153.23,-138.07 189.05,-124 190.81,-123.31 192.61,-122.6 194.43,-121.87"/>
<polygon fill="black" stroke="black" points="195.48,-125.22 203.46,-118.26 192.88,-118.72 195.48,-125.22"/>
</g>
<!-- pr_showup&#45;&gt;Y ind -->
<g id="edge7" class="edge">
<title>pr_showup&#45;&gt;Y ind</title>
<path fill="none" stroke="black" d="M72.02,-161.46C86.45,-151.26 105.47,-137.81 120.99,-126.84"/>
<polygon fill="black" stroke="black" points="122.76,-129.87 128.9,-121.24 118.72,-124.16 122.76,-129.87"/>
</g>
<!-- share
couples -->
<g id="node8" class="node">
<title>share
couples</title>
<ellipse fill="lightgrey" stroke="black" cx="227.05" cy="-333.87" rx="41.02" ry="26.74"/>
<text text-anchor="middle" x="227.05" y="-337.67" font-family="Times,serif" font-size="14.00">share</text>
<text text-anchor="middle" x="227.05" y="-322.67" font-family="Times,serif" font-size="14.00">couples</text>
</g>
<!-- share
couples&#45;&gt;X2 -->
<g id="edge9" class="edge">
<title>share
couples&#45;&gt;X2</title>
<path fill="none" stroke="black" d="M227.05,-306.97C227.05,-298.33 227.05,-288.67 227.05,-279.83"/>
<polygon fill="black" stroke="black" points="230.55,-279.98 227.05,-269.98 223.55,-279.98 230.55,-279.98"/>
</g>
</g>
</svg>
